<?xml version="1.0" standalone="no"?><!DOCTYPE svg PUBLIC "-//W3C//DTD SVG 1.1//EN" "http://www.w3.org/Graphics/SVG/1.1/DTD/svg11.dtd"><svg t="1725698544995" class="icon" viewBox="0 0 1024 1024" version="1.1" xmlns="http://www.w3.org/2000/svg" p-id="4348" width="32" height="32" xmlns:xlink="http://www.w3.org/1999/xlink"><path d="M817.834667 373.8624a172.032 172.032 0 0 0-164.181334-119.125333c-16.725333 0-33.109333 2.389333-48.469333 6.826666a209.544533 209.544533 0 0 0-179.2-100.010666c-98.986667 0-183.296 68.608-204.8 163.498666-70.314667 22.869333-118.784 88.746667-118.784 164.522667 0 95.232 77.482667 172.714667 172.714667 172.714667h498.688c81.578667 0 147.797333-66.218667 147.797333-147.797334 0-65.194667-43.349333-121.856-103.765333-140.629333z m-333.141334-57.685333c-7.168 17.408-26.965333 25.941333-44.714666 18.773333-20.821333-8.533333-47.104 5.12-52.224 27.648-3.754667 16.042667-17.749333 26.624-33.450667 26.624-2.389333 0-4.778667 0-7.509333-0.682667a34.133333 34.133333 0 0 1-25.6-40.96c14.336-64.443733 82.6368-100.113067 144.384-76.117333 17.749333 7.168 25.941333 26.965333 19.114666 44.714667zM285.7984 858.453333a34.133333 34.133333 0 0 1-14.199467-46.114133l26.0096-49.117867a34.133333 34.133333 0 0 1 60.347734 31.9488l-26.0096 49.083734a34.133333 34.133333 0 0 1-46.148267 14.199466zM467.899733 858.453333a34.133333 34.133333 0 0 1-14.199466-46.114133l26.0096-49.117867a34.133333 34.133333 0 0 1 60.347733 31.9488l-26.0096 49.083734a34.133333 34.133333 0 0 1-46.148267 14.199466zM650.0352 858.453333a34.133333 34.133333 0 0 1-14.199467-46.114133l25.941334-49.117867a34.133333 34.133333 0 0 1 60.381866 31.9488l-25.975466 49.083734a34.133333 34.133333 0 0 1-46.148267 14.199466z" p-id="4349"></path></svg>